<svg xmlns="http://www.w3.org/2000/svg" width="73.160" height="66.302" viewBox="0 0 73.160 66.302" fill="#ffffff">
  <path d="M 71.497 24.972 C 71.497 24.972 70.927 23.152 69.247 22.392 C 69.247 22.392 67.337 20.382 63.597 21.002 C 59.867 21.622 55.987 23.112 55.317 23.632 C 54.647 24.152 54.127 24.152 52.737 23.872 C 51.347 23.582 48.287 23.062 47.187 23.582 C 46.087 24.112 44.457 25.212 46.997 25.782 C 46.997 25.782 49.437 26.502 48.337 29.702 C 40.937 40.722 37.527 50.472 37.527 50.472 C 37.527 50.472 34.707 43.182 29.657 41.302 C 32.947 35.082 36.657 28.992 40.307 24.962 C 40.307 24.962 46.837 18.572 48.317 17.572 C 48.267 17.692 47.217 20.222 50.927 16.722 C 50.927 16.722 50.997 18.482 50.717 19.402 C 50.437 20.312 50.787 22.282 52.617 19.472 C 54.447 16.652 54.797 15.322 55.147 10.962 C 55.147 10.962 57.397 9.832 57.817 9.412 C 57.817 9.412 59.437 9.692 61.897 8.642 C 61.897 8.642 63.587 8.292 64.717 8.292 C 65.847 8.292 67.807 6.672 63.727 5.122 C 63.727 5.122 63.167 2.732 60.917 1.952 C 60.917 1.952 58.097 -0.578 53.247 0.122 C 48.387 0.822 42.407 3.782 41.217 4.412 C 40.027 5.052 39.877 5.812 37.277 5.112 C 34.677 4.412 30.247 4.822 29.327 5.392 C 28.407 5.962 26.097 7.152 28.407 8.002 C 30.727 8.842 32.557 10.602 31.787 13.272 C 31.017 15.952 30.307 17.422 29.187 19.252 C 28.057 21.082 19.627 34.582 16.667 50.062 C 16.667 50.062 13.437 37.192 2.317 33.182 C 2.317 33.182 -1.693 31.492 0.837 34.732 C 3.367 37.972 8.647 46.272 11.037 52.532 C 13.427 58.792 15.397 63.432 15.747 64.212 C 16.097 64.982 17.087 68.502 18.977 64.212 C 19.967 61.972 23.147 54.232 27.307 45.852 C 27.437 46.102 27.557 46.352 27.697 46.592 C 29.707 50.322 31.567 53.962 34.827 64.682 C 34.827 64.682 35.687 68.372 37.897 63.532 C 40.097 58.702 47.127 44.152 53.827 38.122 C 60.527 32.092 59.527 33.392 59.957 33.152 C 59.957 33.152 59.187 34.732 61.677 32.772 C 61.677 32.772 62.247 32.482 61.587 34.442 C 60.917 36.402 62.737 36.222 64.027 33.152 C 65.327 30.082 65.077 28.602 65.077 28.602 C 65.077 28.602 66.607 28.222 67.087 27.842 C 67.087 27.842 69.287 27.692 70.527 27.222 C 70.527 27.222 75.747 27.512 71.487 24.972 L 71.497 24.972 Z" fill="currentColor" fill-rule="nonzero"/>
</svg>
