<svg xmlns="http://www.w3.org/2000/svg" width="92.990" height="92.990" viewBox="0 0 92.990 92.990" fill="none">
  <path d="M 91 0 L 1.99 0 C 0.89 0 0 0.89 0 1.99 L 0 91 C 0 92.1 0.89 92.99 1.99 92.99 L 91 92.99 C 92.1 92.99 92.99 92.1 92.99 91 L 92.99 1.99 C 92.99 0.89 92.1 0 91 0 Z M 80.45 40.56 C 79.21 41.04 77.01 41.18 77.01 41.18 C 76.53 41.56 75 41.94 75 41.94 C 75 41.94 75.24 43.42 73.95 46.49 C 72.66 49.56 70.84 49.74 71.51 47.78 C 72.18 45.82 71.6 46.11 71.6 46.11 C 69.11 48.07 69.88 46.49 69.88 46.49 C 69.45 46.74 70.45 45.44 63.75 51.46 C 57.05 57.49 50.02 72.04 47.82 76.87 C 45.62 81.71 44.75 78.02 44.75 78.02 C 41.5 67.3 39.63 63.66 37.62 59.93 C 37.48 59.68 37.36 59.43 37.23 59.19 C 33.07 67.57 29.89 75.31 28.9 77.55 C 27 81.84 26.02 78.32 25.67 77.55 C 25.32 76.77 23.35 72.13 20.96 65.87 C 18.57 59.61 13.29 51.31 10.76 48.07 C 8.23 44.84 12.24 46.52 12.24 46.52 C 23.36 50.53 26.59 63.4 26.59 63.4 C 29.55 47.93 37.99 34.42 39.11 32.59 C 40.23 30.76 40.94 29.28 41.71 26.61 C 42.48 23.94 40.65 22.18 38.33 21.34 C 36.01 20.5 38.33 19.3 39.25 18.73 C 40.16 18.17 44.6 17.75 47.2 18.45 C 49.8 19.15 49.94 18.38 51.14 17.75 C 52.34 17.12 58.32 14.16 63.17 13.46 C 68.02 12.76 70.84 15.29 70.84 15.29 C 73.09 16.06 73.65 18.46 73.65 18.46 C 77.73 20.01 75.76 21.63 74.64 21.63 C 73.52 21.63 71.82 21.98 71.82 21.98 C 69.36 23.03 67.74 22.75 67.74 22.75 C 67.32 23.17 65.07 24.3 65.07 24.3 C 64.72 28.66 64.37 30 62.54 32.81 C 60.71 35.62 60.35 33.65 60.64 32.74 C 60.92 31.82 60.85 30.06 60.85 30.06 C 57.14 33.56 58.19 31.03 58.24 30.91 C 56.75 31.91 50.23 38.3 50.23 38.3 C 46.58 42.33 42.87 48.42 39.58 54.64 C 44.63 56.52 47.45 63.81 47.45 63.81 C 47.45 63.81 50.87 54.06 58.26 43.04 C 59.36 39.84 56.92 39.12 56.92 39.12 C 54.38 38.54 56.01 37.44 57.11 36.92 C 58.21 36.39 61.28 36.92 62.66 37.21 C 64.05 37.5 64.58 37.5 65.24 36.97 C 65.91 36.44 69.79 34.96 73.52 34.34 C 77.26 33.72 79.17 35.73 79.17 35.73 C 80.85 36.49 81.42 38.31 81.42 38.31 C 85.68 40.85 80.46 40.56 80.46 40.56" fill="#000000" fill-rule="nonzero"/>
</svg>
