<svg xmlns="http://www.w3.org/2000/svg" viewBox="0 0 229.15 219.37">
  <!-- UNIwise mark (White/Green variant) — source: UNIwise_logo_WhiteGreen_Non.svg, May 2022 brand kit -->
  <g transform="translate(-184.38,-339.35)">
    <path fill="#FFFFFF" d="M371.43,339.35H226.48c-23.25,0-42.1,18.92-42.1,42.27v80.91c0,23.34,18.85,42.27,42.1,42.27h100.54l63.84,53.92l-12.34-54.53c19.88-3.38,35.02-20.74,35.02-41.66v-80.91C413.53,358.28,394.68,339.35,371.43,339.35L371.43,339.35z"/>
    <path fill="#85B128" d="M246.37,430.23v-50.95c0-6.58,1.13-11.49,3.39-14.73c2.26-3.24,5.7-4.85,10.33-4.85s8.07,1.62,10.33,4.85c2.26,3.24,3.39,8.15,3.39,14.73v47.88c0,10.68,2.02,18.71,6.08,24.1c4.05,5.39,10.1,8.09,18.14,8.09c7.99,0,14.02-2.7,18.1-8.09c4.08-5.39,6.12-13.43,6.12-24.1v-47.88c0-6.58,1.13-11.49,3.39-14.73c2.26-3.24,5.67-4.85,10.25-4.85c4.63,0,8.07,1.62,10.33,4.85c2.26,3.24,3.39,8.15,3.39,14.73v50.95c0,17.54-4.55,31.16-13.64,40.86c-9.09,9.71-21.74,14.56-37.94,14.56c-16.26,0-28.93-4.85-38.02-14.56C250.92,461.39,246.37,447.77,246.37,430.23L246.37,430.23z"/>
  </g>
</svg>
